<svg id="visual" viewBox="0 0 960 540" width="960" height="540" xmlns="http://www.w3.org/2000/svg" xmlns:xlink="http://www.w3.org/1999/xlink" version="1.1"><rect x="0" y="0" width="960" height="540" fill="#FFFFFF"></rect><defs><linearGradient id="grad1_0" x1="43.8%" y1="100%" x2="100%" y2="0%"><stop offset="14.444444444444446%" stop-color="#ffffff" stop-opacity="1"></stop><stop offset="85.55555555555554%" stop-color="#ffffff" stop-opacity="1"></stop></linearGradient></defs><defs><linearGradient id="grad2_0" x1="0%" y1="100%" x2="56.3%" y2="0%"><stop offset="14.444444444444446%" stop-color="#ffffff" stop-opacity="1"></stop><stop offset="85.55555555555554%" stop-color="#ffffff" stop-opacity="1"></stop></linearGradient></defs><g transform="translate(960, 540)"><path d="M-324 0C-245.5 -15.9 -167 -31.8 -149.8 -86.5C-132.6 -141.2 -176.8 -234.6 -162 -280.6C-147.2 -326.6 -73.6 -325.3 0 -324L0 0Z" fill="#FBAE3C"></path></g><g transform="translate(0, 0)"><path d="M324 0C294 43.9 264 87.8 240.8 139C217.5 190.2 201 248.6 162 280.6C123 312.6 61.5 318.3 0 324L0 0Z" fill="#FBAE3C"></path></g></svg>