<svg id="visual" viewBox="0 0 900 600" width="900" height="600" xmlns="http://www.w3.org/2000/svg" xmlns:xlink="http://www.w3.org/1999/xlink" version="1.1"><rect x="0" y="0" width="900" height="600" fill="#ffffff"></rect><path d="M0 489L18.8 478C37.7 467 75.3 445 112.8 435.5C150.3 426 187.7 429 225.2 434C262.7 439 300.3 446 337.8 456.7C375.3 467.3 412.7 481.7 450.2 475.7C487.7 469.7 525.3 443.3 562.8 429.2C600.3 415 637.7 413 675.2 413.3C712.7 413.7 750.3 416.3 787.8 420.8C825.3 425.3 862.7 431.7 881.3 434.8L900 438L900 601L881.3 601C862.7 601 825.3 601 787.8 601C750.3 601 712.7 601 675.2 601C637.7 601 600.3 601 562.8 601C525.3 601 487.7 601 450.2 601C412.7 601 375.3 601 337.8 601C300.3 601 262.7 601 225.2 601C187.7 601 150.3 601 112.8 601C75.3 601 37.7 601 18.8 601L0 601Z" fill="#f7770f"></path><path d="M0 479L18.8 484.8C37.7 490.7 75.3 502.3 112.8 497.5C150.3 492.7 187.7 471.3 225.2 459.3C262.7 447.3 300.3 444.7 337.8 450C375.3 455.3 412.7 468.7 450.2 471.5C487.7 474.3 525.3 466.7 562.8 465.2C600.3 463.7 637.7 468.3 675.2 476.7C712.7 485 750.3 497 787.8 497.2C825.3 497.3 862.7 485.7 881.3 479.8L900 474L900 601L881.3 601C862.7 601 825.3 601 787.8 601C750.3 601 712.7 601 675.2 601C637.7 601 600.3 601 562.8 601C525.3 601 487.7 601 450.2 601C412.7 601 375.3 601 337.8 601C300.3 601 262.7 601 225.2 601C187.7 601 150.3 601 112.8 601C75.3 601 37.7 601 18.8 601L0 601Z" fill="#d53a52"></path><path d="M0 481L18.8 486.2C37.7 491.3 75.3 501.7 112.8 503.2C150.3 504.7 187.7 497.3 225.2 494.3C262.7 491.3 300.3 492.7 337.8 494.8C375.3 497 412.7 500 450.2 503.3C487.7 506.7 525.3 510.3 562.8 508C600.3 505.7 637.7 497.3 675.2 496C712.7 494.7 750.3 500.3 787.8 500.8C825.3 501.3 862.7 496.7 881.3 494.3L900 492L900 601L881.3 601C862.7 601 825.3 601 787.8 601C750.3 601 712.7 601 675.2 601C637.7 601 600.3 601 562.8 601C525.3 601 487.7 601 450.2 601C412.7 601 375.3 601 337.8 601C300.3 601 262.7 601 225.2 601C187.7 601 150.3 601 112.8 601C75.3 601 37.7 601 18.8 601L0 601Z" fill="#8a2c67"></path><path d="M0 526L18.8 524C37.7 522 75.3 518 112.8 522.2C150.3 526.3 187.7 538.7 225.2 544.8C262.7 551 300.3 551 337.8 551.8C375.3 552.7 412.7 554.3 450.2 547C487.7 539.7 525.3 523.3 562.8 523C600.3 522.7 637.7 538.3 675.2 545C712.7 551.7 750.3 549.3 787.8 542C825.3 534.7 862.7 522.3 881.3 516.2L900 510L900 601L881.3 601C862.7 601 825.3 601 787.8 601C750.3 601 712.7 601 675.2 601C637.7 601 600.3 601 562.8 601C525.3 601 487.7 601 450.2 601C412.7 601 375.3 601 337.8 601C300.3 601 262.7 601 225.2 601C187.7 601 150.3 601 112.8 601C75.3 601 37.7 601 18.8 601L0 601Z" fill="#362753"></path><path d="M0 543L18.8 547.7C37.7 552.3 75.3 561.7 112.8 567.3C150.3 573 187.7 575 225.2 571.7C262.7 568.3 300.3 559.7 337.8 554.7C375.3 549.7 412.7 548.3 450.2 549.3C487.7 550.3 525.3 553.7 562.8 556.5C600.3 559.3 637.7 561.7 675.2 562.7C712.7 563.7 750.3 563.3 787.8 562C825.3 560.7 862.7 558.3 881.3 557.2L900 556L900 601L881.3 601C862.7 601 825.3 601 787.8 601C750.3 601 712.7 601 675.2 601C637.7 601 600.3 601 562.8 601C525.3 601 487.7 601 450.2 601C412.7 601 375.3 601 337.8 601C300.3 601 262.7 601 225.2 601C187.7 601 150.3 601 112.8 601C75.3 601 37.7 601 18.8 601L0 601Z" fill="#001122"></path></svg>